<svg xmlns="http://www.w3.org/2000/svg" width="256" height="256" viewBox="0 0 100 100"><rect width="100" height="100" rx="20" fill="#f5a623"></rect><path fill="#fff" d="M35.34 19.13L35.34 19.13Q38.00 19.13 40.87 20.11Q43.74 21.09 45.91 22.63L45.91 22.63Q45.21 26.20 44.61 29.07Q44.02 31.94 43.53 34.28Q43.04 36.63 42.58 38.55Q42.13 40.48 41.71 42.16L41.71 42.16Q40.03 48.46 38.24 53.53Q36.46 58.61 34.46 62.67Q32.47 66.73 30.26 69.88Q28.05 73.03 25.54 75.41L25.54 75.41Q23.08 77.72 20.63 79.19Q18.18 80.66 16.09 81.08L16.09 81.08Q13.29 81.08 10.90 80.45Q8.52 79.82 6.81 78.73Q5.09 77.65 4.15 76.14Q3.20 74.64 3.20 72.82L3.20 72.82Q3.20 70.86 4.18 67.89Q5.16 64.91 7.19 60.85L7.19 60.85Q8.03 60.92 9.15 61.27Q10.27 61.62 11.39 62.11Q12.52 62.60 13.43 63.20Q14.33 63.79 14.75 64.35L14.75 64.35Q12.52 66.66 11.11 69.42Q9.71 72.19 9.71 74.22L9.71 74.22Q9.71 75.41 10.17 76.36Q10.63 77.30 11.74 78.07L11.74 78.07Q16.02 76.46 20.07 72.08Q24.13 67.71 27.29 61.20L27.29 61.20Q29.18 57.35 30.71 52.38Q32.26 47.41 33.34 42.41Q34.43 37.40 35.02 32.81Q35.62 28.23 35.62 25.08L35.62 25.08Q35.62 24.59 35.58 23.71Q35.55 22.84 35.51 21.89Q35.48 20.95 35.41 20.18Q35.34 19.41 35.34 19.13ZM61.24 48.67L61.24 48.67Q65.58 42.23 69.81 36.80Q74.05 31.38 77.90 27.46Q81.75 23.54 84.97 21.37Q88.19 19.20 90.57 19.20L90.57 19.20Q91.48 19.20 92.56 19.90Q93.65 20.60 94.59 21.72Q95.54 22.84 96.17 24.13Q96.80 25.43 96.80 26.62L96.80 26.62Q92.46 28.02 88.29 30.29Q84.13 32.57 80.31 35.54Q76.50 38.52 73.03 42.16Q69.57 45.80 66.77 49.93L66.77 49.93Q67.89 52.80 69.53 56.05Q71.18 59.31 73.14 62.35Q75.09 65.40 77.34 67.99Q79.58 70.58 81.89 72.12L81.89 72.12Q81.54 72.89 80.70 73.59Q79.86 74.29 78.88 74.89Q77.90 75.48 76.81 75.83Q75.73 76.18 74.81 76.18L74.81 76.18Q73.00 76.18 71.46 74.47Q69.92 72.75 68.34 69.28Q66.77 65.82 65.05 60.67Q63.34 55.53 61.24 48.67ZM50.67 76.53L50.67 76.53Q48.01 75.90 46.26 74.33Q44.51 72.75 43.04 70.37L43.04 70.37Q43.67 69.04 44.54 66.87Q45.42 64.70 46.68 61.52Q47.94 58.33 49.69 53.88Q51.44 49.44 53.75 43.49L53.75 43.49Q55.22 39.71 56.16 37.12Q57.11 34.53 57.77 32.04Q58.44 29.56 59.07 26.55Q59.70 23.54 60.54 18.92L60.54 18.92Q63.48 19.48 65.89 21.51Q68.31 23.54 70.06 26.41L70.06 26.41Q69.29 27.39 68.27 29.38Q67.26 31.38 66.00 34.18Q64.74 36.98 63.20 40.41Q61.66 43.84 59.98 47.69L59.98 47.69Q56.20 56.09 54.03 63.05Q51.86 70.02 50.67 76.53Z"></path></svg>